<svg width="58" height="58" viewBox="0 0 58 58" fill="none" xmlns="http://www.w3.org/2000/svg">
<path fill-rule="evenodd" clip-rule="evenodd" d="M29 29C29 24.996 32.246 21.75 36.25 21.75C40.254 21.75 43.5 24.996 43.5 29C43.5 33.004 40.254 36.25 36.25 36.25C32.246 36.25 29 33.004 29 29Z" fill="#1ABCFE"/>
<path fill-rule="evenodd" clip-rule="evenodd" d="M14.5 43.5C14.5 39.496 17.7459 36.25 21.75 36.25H29V43.5C29 47.504 25.754 50.75 21.75 50.75C17.7459 50.75 14.5 47.504 14.5 43.5Z" fill="#0ACF83"/>
<path fill-rule="evenodd" clip-rule="evenodd" d="M29 7.25V21.75H36.25C40.254 21.75 43.5 18.504 43.5 14.5C43.5 10.4959 40.254 7.25 36.25 7.25H29Z" fill="#FF7262"/>
<path fill-rule="evenodd" clip-rule="evenodd" d="M14.5 14.5C14.5 18.504 17.7459 21.75 21.75 21.75H29V7.25H21.75C17.7459 7.25 14.5 10.4959 14.5 14.5Z" fill="#F24E1E"/>
<path fill-rule="evenodd" clip-rule="evenodd" d="M14.5 29C14.5 33.004 17.7459 36.25 21.75 36.25H29V21.75H21.75C17.7459 21.75 14.5 24.996 14.5 29Z" fill="#A259FF"/>
</svg>
