<!-- <svg width="58" height="58" viewBox="0 0 58 58" fill="none" xmlns="http://www.w3.org/2000/svg">
<g clip-path="url(#clip0_342_5)">
<path fill-rule="evenodd" clip-rule="evenodd" d="M29 0C45.0167 0 58 13.3108 58 29.7335C58 42.8676 49.7002 54.0095 38.1843 57.9448C36.714 58.2377 36.192 57.3091 36.192 56.5174C36.192 55.5372 36.2268 52.3357 36.2268 48.3569C36.2268 45.5845 35.2988 43.7751 34.2577 42.8529C40.716 42.1163 47.502 39.6017 47.502 28.1815C47.502 24.9335 46.3768 22.2831 44.515 20.2009C44.8166 19.4498 45.8113 16.4255 44.2308 12.3307C44.2308 12.3307 41.8006 11.5339 36.2645 15.3793C33.9474 14.721 31.465 14.3898 29 14.3782C26.535 14.3898 24.0555 14.721 21.7413 15.3793C16.1994 11.5339 13.7634 12.3307 13.7634 12.3307C12.1887 16.4255 13.1834 19.4498 13.4821 20.2009C11.629 22.2831 10.4951 24.9335 10.4951 28.1815C10.4951 39.5727 17.2666 42.1259 23.7075 42.877C22.8781 43.6194 22.127 44.929 21.866 46.8517C20.213 47.6115 16.0138 48.9265 13.427 44.3822C13.427 44.3822 11.8929 41.5253 8.9813 41.3165C8.9813 41.3165 6.1538 41.2789 8.7841 43.1233C8.7841 43.1233 10.6836 44.0368 12.0031 47.4733C12.0031 47.4733 13.7054 52.7802 21.7732 50.9822C21.7877 53.4675 21.8138 55.8098 21.8138 56.5174C21.8138 57.3033 21.2802 58.2231 19.8331 57.9476C8.30849 54.0181 0 42.8705 0 29.7335C0 13.3108 12.9862 0 29 0Z" fill="black"/>
</g>
<defs>
<clipPath id="clip0_342_5">
<rect width="58" height="58" fill="red"/>
</clipPath>
</defs>
</svg> -->
<svg width="58" height="58" viewBox="0 0 58 58" fill="none" xmlns="http://www.w3.org/2000/svg">
<g clip-path="url(#clip0_344_2)">
<path fill-rule="evenodd" clip-rule="evenodd" d="M29 0C45.0167 0 58 13.3108 58 29.7335C58 42.8676 49.7002 54.0095 38.1843 57.9448C36.714 58.2377 36.192 57.3091 36.192 56.5174C36.192 55.5372 36.2268 52.3357 36.2268 48.3569C36.2268 45.5845 35.2988 43.7751 34.2577 42.8529C40.716 42.1163 47.502 39.6017 47.502 28.1815C47.502 24.9335 46.3768 22.2831 44.515 20.2009C44.8166 19.4498 45.8113 16.4255 44.2308 12.3307C44.2308 12.3307 41.8006 11.5339 36.2645 15.3793C33.9474 14.721 31.465 14.3898 29 14.3782C26.535 14.3898 24.0555 14.721 21.7413 15.3793C16.1994 11.5339 13.7634 12.3307 13.7634 12.3307C12.1887 16.4255 13.1834 19.4498 13.4821 20.2009C11.629 22.2831 10.4951 24.9335 10.4951 28.1815C10.4951 39.5727 17.2666 42.1259 23.7075 42.877C22.8781 43.6194 22.127 44.929 21.866 46.8517C20.213 47.6115 16.0138 48.9265 13.427 44.3822C13.427 44.3822 11.8929 41.5253 8.9813 41.3165C8.9813 41.3165 6.1538 41.2789 8.7841 43.1233C8.7841 43.1233 10.6836 44.0368 12.0031 47.4733C12.0031 47.4733 13.7054 52.7802 21.7732 50.9822C21.7877 53.4675 21.8138 55.8098 21.8138 56.5174C21.8138 57.3033 21.2802 58.2231 19.8331 57.9476C8.30849 54.0181 0 42.8705 0 29.7335C0 13.3108 12.9862 0 29 0Z" fill="#F1DFDF"/>
</g>
<defs>
<clipPath id="clip0_344_2">
<rect width="58" height="58" fill="white"/>
</clipPath>
</defs>
</svg>
