<svg width="58" height="58" viewBox="0 0 58 58" fill="none" xmlns="http://www.w3.org/2000/svg">
<path d="M14.5 19.3333C16.4333 6.44444 21.2667 0 29 0C40.6 0 42.05 14.5 47.85 16.9167C51.7167 18.5278 55.1 16.1111 58 9.66666C56.0667 22.5556 51.2333 29 43.5 29C31.9 29 30.45 14.5 24.65 12.0833C20.7833 10.4722 17.4 12.8889 14.5 19.3333ZM0 48.3333C1.93333 35.4444 6.76667 29 14.5 29C26.1 29 27.55 43.5 33.35 45.9167C37.2167 47.5278 40.6 45.1111 43.5 38.6667C41.5667 51.5556 36.7333 58 29 58C17.4 58 15.95 43.5 10.15 41.0833C6.28333 39.4722 2.9 41.8889 0 48.3333Z" fill="#44A8B3"/>
</svg>
